<?xml version="1.0" encoding="utf-8"?>
<!-- Generator: Adobe Illustrator 26.0.2, SVG Export Plug-In . SVG Version: 6.00 Build 0)  -->
<svg version="1.1" id="outline" xmlns="http://www.w3.org/2000/svg" xmlns:xlink="http://www.w3.org/1999/xlink" x="0px" y="0px"
	 viewBox="0 0 430 430" style="enable-background:new 0 0 430 430;" xml:space="preserve">
<style type="text/css">
	.st0{fill:url(#SVGID_1_);}
	.st1{fill:url(#SVGID_00000006692551389183885000000003040055103124483231_);}
	.st2{fill:url(#SVGID_00000129925184143057829610000001124323804008393635_);}
	.st3{fill:url(#SVGID_00000061430603071382106140000001451707232909500312_);}
	.st4{fill:url(#SVGID_00000086652160830588879080000005042141134114852231_);}
	.st5{fill:url(#SVGID_00000113349513175811893180000015058340724827188904_);}
	.st6{fill:url(#SVGID_00000044893633513451283720000003694157712694058374_);}
	.st7{fill:url(#SVGID_00000016052017429961309340000017737693979398419115_);}
	.st8{fill:url(#SVGID_00000082364683553697857280000011181952647862246047_);}
	.st9{fill:url(#SVGID_00000034771607704642035580000005567069103481456319_);}
	.st10{fill:url(#SVGID_00000121971202719217818390000006227638882757681338_);}
	.st11{fill:url(#SVGID_00000062907747678179365290000000957623116623959183_);}
	.st12{fill:url(#SVGID_00000073700799693722058530000009126786835163704989_);}
	.st13{fill:url(#SVGID_00000163068744437854333260000002684109438469276811_);}
	.st14{fill:url(#SVGID_00000104681631661973883750000011556561066660209797_);}
	.st15{fill:url(#SVGID_00000087386738172997308610000004296155791638028417_);}
	.st16{fill:url(#SVGID_00000158747539645644648230000002447367411645389490_);}
	.st17{fill:url(#SVGID_00000146458114179897428810000005251329916018799510_);}
	.st18{fill:url(#SVGID_00000049211502565890435540000012794948664395033788_);}
	.st19{fill:url(#SVGID_00000099646443568416282900000007840074371293564323_);}
	.st20{fill:url(#SVGID_00000170262001487151885650000006561387268487687839_);}
	.st21{fill:url(#SVGID_00000043436308664234948610000005629470759821830830_);}
	.st22{fill:url(#SVGID_00000174570021169065986730000017732652725955598520_);}
	.st23{fill:url(#SVGID_00000154398132536868222320000015119404657855577788_);}
	.st24{fill:url(#SVGID_00000172401937628456236750000003720506558203379901_);}
	.st25{fill:url(#SVGID_00000142881853949136861560000008446904610350666408_);}
	.st26{fill:url(#SVGID_00000008111937236586130590000008027512206065864116_);}
	.st27{fill:url(#SVGID_00000006709012835181369980000000640683309948882061_);}
	.st28{fill:url(#SVGID_00000036973716217495603000000007791595766099233443_);}
	.st29{fill:url(#SVGID_00000029725958588540213360000013393496793654686903_);}
	.st30{fill:url(#SVGID_00000147220905121105686850000003070689964402191796_);}
	.st31{fill:url(#SVGID_00000158021439717677711340000013275282039407733409_);}
	.st32{fill:url(#SVGID_00000115492647254724887470000002867584137134682526_);}
	.st33{fill:url(#SVGID_00000075848747091271563870000007385307406087247501_);}
	.st34{fill:url(#SVGID_00000054253088539570956370000004719980622666143415_);}
	.st35{fill:url(#SVGID_00000152957243964441849730000008659093915017647775_);}
	.st36{fill:url(#SVGID_00000097490211093635447850000017714010165455600512_);}
	.st37{fill:url(#SVGID_00000030462306799479191400000002922027532815368888_);}
	.st38{fill:url(#SVGID_00000026870531609584529370000013863283831082276264_);}
	.st39{fill:url(#SVGID_00000052080296401891049080000001801012192161863827_);}
</style>
<linearGradient id="SVGID_1_" gradientUnits="userSpaceOnUse" x1="122.4479" y1="148.2753" x2="369.5829" y2="395.4103">
	<stop  offset="0" style="stop-color:#cb5eee"/>
	<stop  offset="1" style="stop-color:#4be1ec"/>
</linearGradient>
<path class="st0" d="M281.68,99.56c1.68,2.7,4.32,4.59,7.44,5.32c0.91,0.21,1.83,0.32,2.75,0.32c2.2,0,4.37-0.61,6.28-1.8
	l23.25-14.46c5.85-3.64,9.95-9.37,11.52-16.12c1.57-6.75,0.43-13.69-3.21-19.55l-1.31-2.11c-3.64-5.85-9.37-9.95-16.12-11.52
	c-6.75-1.57-13.69-0.43-19.55,3.21l-11.41,7.1c-5.85,3.64-9.95,9.37-11.52,16.12c-1.57,6.75-0.43,13.69,3.21,19.55L281.68,99.56z
	 M281.48,68.79c0.85-3.63,3.04-6.7,6.17-8.65l11.41-7.1c3.13-1.95,6.86-2.56,10.49-1.71c3.63,0.85,6.7,3.04,8.65,6.17l1.31,2.11
	c1.95,3.13,2.56,6.86,1.71,10.49c-0.85,3.63-3.04,6.7-6.17,8.65l-23.18,14.48l-8.68-13.95C281.24,76.14,280.63,72.42,281.48,68.79z
	 M103.09,363.4c3.31,0,6,2.69,6,6s-2.69,6-6,6c-27.34,0-49.59-22.25-49.59-49.59c0-3.31,2.69-6,6-6s6,2.69,6,6
	C65.5,346.54,82.36,363.4,103.09,363.4z M338.09,369.4c0,3.31-2.69,6-6,6c-27.34,0-49.59-22.25-49.59-49.59c0-3.31,2.69-6,6-6
	s6,2.69,6,6c0,20.73,16.86,37.59,37.59,37.59C335.4,363.4,338.09,366.09,338.09,369.4z M385.62,272.25
	c-14.31-14.31-33.33-22.19-53.56-22.19c-6.67,0-13.2,0.87-19.48,2.53l-15.29-43.3c3.42-0.47,6.78-1.69,9.98-3.67
	c3.67-2.27,6.4-5.06,8.11-7.1c0.36,0,0.71,0,1.04,0c1.11,2.36,1.22,5.13,0.33,8.4c-0.96,3.56-2.76,6.24-2.76,6.24
	c-1.89,2.72-1.21,6.46,1.51,8.35c1.04,0.72,2.23,1.07,3.41,1.07c1.9,0,3.77-0.9,4.94-2.58c0.3-0.43,2.99-4.41,4.48-9.95
	c2.17-8.03,0.82-15.33-3.89-21.13c-1.75-2.36-4.1-2.38-6.81-2.39c-0.64,0-1.42-0.01-2.29-0.01l-31.28-41.2l-10.71-44.46
	c-0.14-0.58-0.36-1.11-0.64-1.6c-0.56-1.82-1.2-3.56-1.97-5.07c-2.8-5.48-7-10.12-12.15-13.43c-4.96-3.19-10.69-5.08-16.58-5.47
	c-0.72-0.07-2.74-0.18-5.64,0.16c-4.07,0.48-8.19,1.64-12.23,3.45c-0.09,0.04-0.19,0.09-0.28,0.13l-60.76,31.06
	c-0.19,0.1-0.38,0.21-0.56,0.32c-2.85,1.66-5.5,3.59-7.89,5.74c-3.48,3.13-6.41,6.72-8.71,10.67c-5.25,9.03-7.04,19.87-5.17,31.33
	c0.95,5.84,2.65,10.65,3.88,13.63h-8.94c-0.04,0-0.08,0-0.12,0h-24.08c-3.31,0-6,2.69-6,6s2.69,6,6,6h19.94l17.85,45.23
	l-15.21,27.68c-3.86-1.73-7.85-3.15-11.94-4.21c-6.21-1.61-12.63-2.43-19.1-2.43c-20.23,0-39.25,7.88-53.56,22.19
	c-14.31,14.31-22.19,33.33-22.19,53.56c0,20.23,7.88,39.25,22.19,53.56c14.31,14.31,33.33,22.19,53.56,22.19
	c20.23,0,39.25-7.88,53.56-22.19c12.9-12.9,20.56-29.65,21.94-47.7h15.33c0.01,0,0.01,0,0.02,0c0.01,0,0.03,0,0.04,0
	c0.32,0,0.63-0.04,0.94-0.09c0.06-0.01,0.13-0.02,0.19-0.03c0.32-0.06,0.64-0.16,0.94-0.27c0.03-0.01,0.06-0.01,0.08-0.02
	c0.06-0.02,0.12-0.05,0.17-0.08c0.09-0.04,0.17-0.07,0.26-0.12c0.11-0.05,0.22-0.11,0.33-0.18c0.07-0.04,0.14-0.08,0.21-0.12
	c0.12-0.07,0.23-0.15,0.35-0.24c0.05-0.04,0.11-0.08,0.16-0.12c0.13-0.1,0.25-0.2,0.36-0.31c0.04-0.03,0.07-0.06,0.11-0.1
	c0.15-0.15,0.3-0.3,0.43-0.46c0,0,0,0,0,0l0,0c0.01-0.01,0.01-0.02,0.02-0.02l90.58-107.3l12.13,34.37
	c-8.37,3.73-16.09,8.99-22.76,15.66c-14.31,14.31-22.19,33.33-22.19,53.56s7.88,39.26,22.19,53.56
	c14.31,14.31,33.33,22.19,53.56,22.19s39.26-7.88,53.56-22.19c14.31-14.31,22.19-33.33,22.19-53.56S399.93,286.56,385.62,272.25z
	 M231.08,212.3c-0.3-0.98-0.64-1.94-1.06-2.88c-1.27-2.87-3.02-5.46-5.22-7.71l-23.63-32.82l41.49-21.21l3.83,14.01
	c0.2,0.74,0.54,1.43,1.01,2.04l30.01,39.6c0.42,0.56,0.94,1.04,1.52,1.42c0.53,0.34,1.06,0.66,1.59,0.96L231.08,212.3z
	 M229.19,89.79c3.59-1.59,6.65-2.19,8.59-2.42c1.96-0.23,3.14-0.13,3.14-0.13c0.08,0.01,0.16,0.01,0.24,0.02
	c3.88,0.25,7.67,1.49,10.94,3.6c3.37,2.17,6.12,5.21,7.96,8.8c0.97,1.89,1.87,5.48,2.59,8.37c0.35,1.4,0.68,2.72,1.03,3.9
	l9.01,37.42c0.19,0.81,0.55,1.56,1.05,2.22l30.99,40.82c-1.01,1-2.28,2.1-3.77,3.02c-4.66,2.88-9.43,2.81-14.56-0.21l-28.64-37.79
	l-14.94-54.73c-0.87-3.2-4.17-5.08-7.37-4.21c-3.2,0.87-5.08,4.17-4.21,7.37l8.19,30.01l-44.72,22.86l-20.79-40.67L229.19,89.79z
	 M156.34,132.84c1.66-2.87,3.8-5.48,6.35-7.76c0.31-0.28,0.63-0.54,0.95-0.8l23.13,45.25c0.31,0.62,0.75,1.15,1.24,1.62l27.34,37.98
	c0.2,0.28,0.42,0.54,0.67,0.78c1.29,1.27,2.31,2.74,3.04,4.38c0.7,1.59,1.11,3.29,1.2,5.02c0.09,1.79-0.16,3.56-0.73,5.26
	c-0.59,1.75-1.51,3.35-2.73,4.76c-0.18,0.21-0.35,0.43-0.5,0.67l-29,44.84c-1.06,1.64-1.26,3.69-0.53,5.49
	c0.02,0.06,2.33,5.85,3.26,12.19c0.29,1.98,0.68,5.79-0.08,8.49l-0.04-0.03c0,0,0,0-0.01-0.01l-0.06-0.05c0,0,0,0,0,0l-17.87-15.38
	l-12.36-10.64l28.49-46.96c0-0.01,0.01-0.01,0.01-0.02l2.31-3.81c1.23-2.02,1.15-4.58-0.2-6.53l-33.72-48.69
	c-0.73-1.55-2.84-6.37-3.87-12.65C151.2,147.4,152.45,139.54,156.34,132.84z M138.85,273.03c0.76,0.52,1.51,1.04,2.24,1.59
	c2.06,1.53,4.02,3.2,5.88,4.97c0.27,0.38,0.58,0.75,0.95,1.07l0.99,0.85c5.59,5.78,9.99,12.46,13.07,19.85
	c2.44,5.86,3.96,12,4.56,18.31h-53.31L138.85,273.03z M166.63,240.16l-2.7-6.84l7.45-0.99L166.63,240.16z M175.84,304.69l5.11,4.4
	l4.18,10.58h-6.55C178.17,314.57,177.25,309.57,175.84,304.69z M150.21,183.78c0.64,0,1.25-0.1,1.83-0.29l24.93,36l-17.57,2.33
	l-15.02-38.04H150.21z M158.82,253.04l-8.31,13.7c-0.74-0.6-1.49-1.18-2.26-1.75c-1.17-0.87-2.38-1.71-3.61-2.51l10.41-18.96
	L158.82,253.04z M148.17,370.89c-12.04,12.04-28.05,18.67-45.08,18.67s-33.04-6.63-45.08-18.67s-18.67-28.05-18.67-45.08
	s6.63-33.04,18.67-45.08c12.04-12.04,28.05-18.67,45.08-18.67c5.45,0,10.86,0.69,16.08,2.04c3.13,0.81,6.19,1.87,9.16,3.15
	l-30.5,55.53c-1.02,1.86-0.98,4.12,0.09,5.94c1.08,1.83,3.04,2.94,5.16,2.94h63.48C165.22,346.48,158.82,360.24,148.17,370.89z
	 M195.83,314.12l-0.37-0.93c4.47-3.15,8.32-9.53,6.43-22.44c-0.69-4.72-1.99-9.13-2.91-11.92l27.18-42.02
	c2.1-2.51,3.69-5.35,4.74-8.44c0.45-1.34,0.79-2.71,1.02-4.09l44.78-5.96L195.83,314.12z M377.13,370.89
	c-12.04,12.04-28.05,18.67-45.08,18.67s-33.04-6.63-45.08-18.67s-18.67-28.05-18.67-45.08s6.63-33.04,18.67-45.08
	c5.39-5.39,11.57-9.68,18.29-12.79l21.14,59.87c0.87,2.46,3.19,4,5.66,4c0.66,0,1.34-0.11,2-0.34c3.12-1.1,4.76-4.53,3.66-7.66
	l-21.14-59.87c5-1.24,10.19-1.88,15.48-1.88c17.03,0,33.04,6.63,45.08,18.67s18.67,28.05,18.67,45.08S389.17,358.85,377.13,370.89z"
	/>
</svg>
